<?xml version="1.0" encoding="iso-8859-1"?>
<!-- Generator: Adobe Illustrator 19.0.0, SVG Export Plug-In . SVG Version: 6.00 Build 0)  -->
<svg version="1.1" id="Capa_1" xmlns="http://www.w3.org/2000/svg" xmlns:xlink="http://www.w3.org/1999/xlink" x="0px" y="0px"
	 viewBox="0 0 502.72 502.72" style="enable-background:new 0 0 502.72 502.72;" xml:space="preserve">
<g>
	<g>
		<g>
			<path  style="fill:#194F82;" d="M440.193,99.733c-50.778-18.637-108.436,10.958-128.627,65.963l-38.051,103.82
				c-3.516,9.534-5.199,19.198-6.083,28.775h-32.14c-0.884-9.577-2.567-19.241-6.061-28.775l-38.094-103.799
				c-20.169-55.005-77.871-84.601-128.627-65.963C11.754,118.37-13.182,178.272,7.008,233.277l38.051,103.734
				c20.212,55.027,77.935,84.601,128.713,65.985c27.309-10.03,46.765-32.162,56.127-58.888h42.947
				c9.34,26.726,28.797,48.879,56.127,58.888c50.778,18.616,108.458-10.958,128.691-65.985l38.094-103.755
				C515.863,178.25,490.927,118.348,440.193,99.733z M158.133,360.351c-27.309,10.009-58.867-7.464-70.407-38.935L49.654,217.638
				c-11.54-31.493,1.273-65.252,28.495-75.239c27.265-10.009,58.824,7.485,70.364,38.957l38.094,103.799
				c1.596,4.357,2.632,8.758,3.322,13.137h-27.697c-12.662,0-22.887,10.289-22.887,22.908s10.225,22.887,22.887,22.887h17.127
				C173.923,351.313,166.87,357.158,158.133,360.351z M453.049,217.638l-38.116,103.799c-11.519,31.472-43.098,48.944-70.385,38.935
				c-8.736-3.192-15.768-9.038-21.204-16.264h43.746c12.64,0,22.908-10.246,22.908-22.887s-10.289-22.908-22.908-22.908h-54.358
				c0.69-4.379,1.726-8.779,3.322-13.137l38.116-103.799c11.519-31.472,43.077-48.966,70.364-38.957
				C451.776,152.387,464.568,186.145,453.049,217.638z"/>
		</g>
	</g>
	<g>
	</g>
	<g>
	</g>
	<g>
	</g>
	<g>
	</g>
	<g>
	</g>
	<g>
	</g>
	<g>
	</g>
	<g>
	</g>
	<g>
	</g>
	<g>
	</g>
	<g>
	</g>
	<g>
	</g>
	<g>
	</g>
	<g>
	</g>
	<g>
	</g>
</g>
<g>
</g>
<g>
</g>
<g>
</g>
<g>
</g>
<g>
</g>
<g>
</g>
<g>
</g>
<g>
</g>
<g>
</g>
<g>
</g>
<g>
</g>
<g>
</g>
<g>
</g>
<g>
</g>
<g>
</g>
</svg>
