<?xml version="1.0" encoding="utf-8"?>
<!-- Svg Vector Icons : http://www.onlinewebfonts.com/icon -->
<!DOCTYPE svg PUBLIC "-//W3C//DTD SVG 1.1//EN" "http://www.w3.org/Graphics/SVG/1.1/DTD/svg11.dtd">
<svg version="1.1" xmlns="http://www.w3.org/2000/svg" xmlns:xlink="http://www.w3.org/1999/xlink" x="0px" y="0px" viewBox="0 0 1000 1000" enable-background="new 0 0 1000 1000" xml:space="preserve">
<metadata> Svg Vector Icons : http://www.onlinewebfonts.com/icon </metadata>
<g><g transform="translate(0.000000,511.000000) scale(0.100000,-0.100000)"><path style="fill:#FFC10D;" d="M525.2,3752.1c-145.6-51.7-249.1-128.4-314.3-230c-120.7-189.7-113.1,23-109.2-3455.2l5.7-3169.6l63.2-128.4c105.4-216.5,293.2-331.5,540.4-331.5c126.5,1.9,159.1,9.6,277.9,69c220.4,113.1,4917.3,3058.5,5024.7,3150.5c143.7,124.6,207,264.5,207,452.3c0,187.8-67.1,325.8-220.4,458c-111.1,95.8-4884.8,3081.5-5049.6,3160.1C820.3,3788.5,653.6,3798.1,525.2,3752.1z M2930.2,1065.4C3765.8,544.1,4448,112.9,4448,107.2c0-7.7-2744.2-1728.5-3050.8-1912.5l-72.8-44.1V107.2v1956.6l46-24.9C1393.3,2025.5,2096.6,1586.6,2930.2,1065.4z"/><path style="fill:#194F82;" d="M4244.8,3769.3c-92-23-254.9-118.8-306.6-180.1c-107.3-126.5-149.5-243.4-149.5-406.3c-1.9-130.3,5.7-170.6,51.7-262.5c32.6-67.1,92-143.7,149.5-193.5c53.7-46,1006.1-653.5,2117.6-1347.2C7219,685.9,8127.4,112.9,8127.4,107.2S7219-469.6,6109.5-1163.3c-1109.6-693.7-2062-1299.3-2117.6-1347.2c-143.7-126.5-205.1-262.5-205.1-458c1.9-136.1,7.7-166.7,65.2-274c69-126.5,145.6-199.3,289.4-274c69-34.5,116.9-44.1,239.5-44.1c139.9-1.9,166.7,5.8,287.5,67.1c222.3,115,4917.3,3058.5,5024.7,3150.5c141.8,124.6,207,264.5,207,450.3c0,187.8-65.2,325.8-208.9,450.3C9580,655.3,4877.2,3602.6,4668.4,3706.1C4526.6,3777,4365.6,3800,4244.8,3769.3z"/></g></g>
</svg>